<svg width="124" height="30" viewBox="0 0 124 30" fill="none" xmlns="http://www.w3.org/2000/svg">
<path d="M24.3158 29.6555C24.3158 29.8458 24.4713 30 24.6632 30L31.4303 30C31.4539 30 31.4776 29.9976 31.5007 29.9927C34.4833 29.3647 36.7514 26.8497 36.9812 23.7604C37 23.5074 37 23.2075 37 22.6077L37 21.8182C37 20.8669 36.2224 20.0957 35.2632 20.0957L35.1184 20.0957C32.3207 20.0957 30.0526 17.8464 30.0526 15.0718C30.0526 12.2971 32.3207 10.0478 35.1184 10.0478L35.2632 10.0478C36.2224 10.0478 37 9.27667 37 8.32536L37 7.53589C37 6.93608 37 6.63618 36.9812 6.3831C36.7279 2.97759 33.9976 0.269878 30.5637 0.0186705C30.3085 3.22971e-06 30.0061 1.29592e-06 29.4013 1.24305e-06L22.3474 6.26375e-07C22.1555 6.09603e-07 22 0.154236 22 0.344498L22 2.0957C22 2.28596 22.1564 2.43748 22.3462 2.46568C23.4609 2.63138 24.3158 3.5851 24.3158 4.73684L24.3158 7.03349C24.3158 8.18523 23.4609 9.13895 22.3462 9.30466C22.1564 9.33286 22 9.48438 22 9.67464L22 13.5789C22 13.7692 22.1564 13.9207 22.3462 13.9489C23.4609 14.1146 24.3158 15.0684 24.3158 16.2201L24.3158 18.5167C24.3158 19.6685 23.4609 20.6222 22.3462 20.7879C22.1564 20.8161 22 20.9676 22 21.1579L22 25.0622C22 25.2525 22.1564 25.404 22.3462 25.4322C23.4609 25.5979 24.3158 26.5516 24.3158 27.7033L24.3158 29.6555Z" fill="#00334E"/>
<mask id="mask0_181_1711" style="mask-type:alpha" maskUnits="userSpaceOnUse" x="0" y="0" width="22" height="30">
<path d="M19.6842 0.344498C19.6842 0.154237 19.5287 0 19.3368 0H5.56973C5.54608 0 5.52239 0.00238563 5.49926 0.00725644C2.51668 0.635251 0.2486 3.1503 0.0188242 6.23956C0 6.49264 0 6.79254 0 7.39234V8.18182C0 9.13312 0.777611 9.90431 1.73684 9.90431H1.88158C4.67934 9.90431 6.94737 12.1536 6.94737 14.9282C6.94737 17.7029 4.67934 19.9522 1.88158 19.9522H1.73684C0.777611 19.9522 0 20.7233 0 21.6746V22.4641C0 23.0639 0 23.3638 0.0188242 23.6169C0.272123 27.0224 3.00241 29.7301 6.43629 29.9813C6.69148 30 6.99388 30 7.59868 30H21.6526C21.8445 30 22 29.8458 22 29.6555V27.9043C22 27.714 21.8436 27.5625 21.6538 27.5343C20.5391 27.3686 19.6842 26.4149 19.6842 25.2632V22.9665C19.6842 21.8148 20.5391 20.861 21.6538 20.6953C21.8436 20.6671 22 20.5156 22 20.3254V16.4211C22 16.2308 21.8436 16.0793 21.6538 16.0511C20.5391 15.8854 19.6842 14.9316 19.6842 13.7799V11.4833C19.6842 10.3315 20.5391 9.37779 21.6538 9.21209C21.8436 9.18389 22 9.03237 22 8.8421V4.9378C22 4.74754 21.8436 4.59602 21.6538 4.56782C20.5391 4.40211 19.6842 3.44839 19.6842 2.29665V0.344498Z" fill="#FC6546"/>
</mask>
<g mask="url(#mask0_181_1711)">
<path d="M-3.48559 -3L-4.92205 12.7172C-5.78586 21.4027 0.629663 29.1501 9.34546 29.9335C18.0613 30.7266 25.7677 24.3334 26.5635 15.6575L28 -0.0596826L-3.48559 -3ZM3.64817 5.75325L7.60813 6.11112C8.40401 6.17882 8.97665 6.90423 8.90871 7.68767C8.84076 8.40341 8.19048 8.98373 7.47225 8.98373C7.40431 8.98373 7.4043 8.98373 7.32666 8.98373L3.36671 8.62586C2.57083 8.55816 1.99818 7.83275 2.06612 7.04931C2.13406 6.2562 2.85229 5.67587 3.64817 5.75325ZM19.1386 19.6714C17.1975 22.3216 14.0916 23.9755 10.8499 23.9755C10.5587 23.9755 10.1996 23.9755 9.91812 23.9078C6.31727 23.5499 3.14347 21.3253 1.62936 18.0948C1.27025 17.3791 1.62937 16.5183 2.3476 16.1604C3.06582 15.8026 3.92964 16.1604 4.28875 16.8762C5.3661 19.2458 7.67607 20.8224 10.1996 21.0352C12.791 21.248 15.3145 20.1066 16.8286 18.0175C17.2654 17.3694 18.1972 17.2244 18.8474 17.6596C19.4201 18.0948 19.5657 19.0234 19.1386 19.6714ZM19.2745 10.0573C19.2066 10.0573 19.2065 10.0573 19.1289 10.0573L15.1689 9.69947C14.3731 9.63176 13.8004 8.90635 13.8684 8.12291C13.9363 7.3298 14.6642 6.75915 15.4504 6.82685L19.4104 7.18472C20.2063 7.25243 20.7789 7.97783 20.711 8.76128C20.643 9.48668 20.0024 10.0573 19.2745 10.0573Z" fill="#F86530"/>
</g>
<path d="M120.121 22.1429L120.205 18.9675C120.205 18.2451 120.18 17.7895 120.13 17.6006C120.085 17.4117 120.027 17.27 119.955 17.1755C119.799 16.9811 119.571 16.8838 119.271 16.8838C118.971 16.8838 118.716 16.9172 118.505 16.9839C118.071 17.1283 117.516 17.5339 116.838 18.2007C116.838 18.923 116.821 20.8455 116.788 23.9681C116.171 24.0737 115.657 24.1265 115.246 24.1265C114.835 24.1265 114.487 24.0737 114.204 23.9681C114.304 22.6179 114.354 21.3733 114.354 20.2343C114.354 19.0897 114.34 18.1034 114.312 17.2756C114.312 16.8533 114.162 16.6032 113.862 16.5255C113.673 16.4643 113.407 16.4199 113.062 16.3921C113.029 16.2476 113.012 16.1337 113.012 16.0504C113.012 15.9615 113.023 15.8809 113.046 15.8087C113.846 15.3586 114.84 15.1336 116.029 15.1336C116.224 15.1336 116.368 15.1364 116.463 15.1419C116.679 15.5142 116.799 16.1532 116.821 17.0589C117.86 15.7254 119.077 15.0586 120.472 15.0586C121.116 15.0586 121.619 15.2781 121.98 15.717C122.347 16.1504 122.555 16.7394 122.605 17.4839C122.627 17.8229 122.639 18.1618 122.639 18.5007C122.639 18.8397 122.622 19.2064 122.588 19.6009C122.494 20.801 122.447 21.7206 122.447 22.3596C122.447 22.504 122.55 22.6152 122.755 22.693C122.961 22.7707 123.161 22.8096 123.355 22.8096C123.555 22.8096 123.691 22.7985 123.764 22.7763C123.83 22.9263 123.864 23.0652 123.864 23.193C123.864 23.3153 123.858 23.3986 123.847 23.4431C122.808 23.982 122.033 24.2515 121.522 24.2515C121.011 24.2515 120.649 24.0793 120.438 23.7348C120.227 23.3847 120.121 22.8541 120.121 22.1429Z" fill="#00334E"/>
<path d="M111.524 14.8919C112.568 14.8919 113.09 15.392 113.09 16.3921C113.09 17.1644 112.685 18.2229 111.874 19.5675C110.829 21.2955 110.029 22.8208 109.473 24.1432C109.273 24.2209 109.051 24.2598 108.807 24.2598C108.562 24.2598 108.323 24.2126 108.09 24.1181C107.856 24.0237 107.695 23.9181 107.606 23.8014C107.523 23.6848 107.334 23.2625 107.04 22.5346C106.751 21.8067 106.445 21.0455 106.123 20.251C105.806 19.4564 105.451 18.6896 105.056 17.9507C104.662 17.2117 104.331 16.7588 104.064 16.5921C103.975 16.5366 103.709 16.4921 103.264 16.4588C103.259 16.4143 103.25 16.3671 103.239 16.3171C103.228 16.2615 103.22 16.2199 103.214 16.1921C103.197 16.0754 103.197 15.9698 103.214 15.8754C104.02 15.4253 104.923 15.2003 105.923 15.2003C106.106 15.2003 106.242 15.2031 106.331 15.2086C106.559 15.4475 106.901 16.1226 107.356 17.2339C107.812 18.3396 108.376 19.9704 109.048 22.1262C110.243 18.6535 110.868 16.6394 110.924 16.0837C110.94 15.9448 110.949 15.7892 110.949 15.617C110.949 15.4392 110.896 15.2697 110.79 15.1086C110.79 15.0586 110.871 15.0114 111.032 14.9669C111.193 14.9169 111.357 14.8919 111.524 14.8919Z" fill="#00334E"/>
<path d="M101.067 21.7345C101.378 21.4789 101.706 21.3511 102.05 21.3511C102.395 21.3511 102.681 21.4622 102.909 21.6845C103.142 21.9011 103.259 22.2067 103.259 22.6012C103.259 22.9902 103.109 23.318 102.809 23.5847C102.514 23.8514 102.189 23.9848 101.834 23.9848C101.478 23.9848 101.178 23.8764 100.934 23.6597C100.695 23.4375 100.575 23.1374 100.575 22.7596C100.575 22.3762 100.739 22.0345 101.067 21.7345Z" fill="#00334E"/>
<path d="M99.7542 21.6163C100.033 21.8719 100.192 22.1352 100.231 22.4063C99.2082 23.7075 98.027 24.3581 96.6871 24.3581C95.8119 24.3581 95.1923 24.0095 94.8283 23.3125C94.5185 22.7006 94.3287 21.6511 94.259 20.1641C94.197 17.8405 94.1661 15.6757 94.1661 13.6697C93.3761 13.6388 92.892 13.6 92.7139 13.5536C92.6751 13.4916 92.6558 13.2631 92.6558 12.8681C92.6558 12.4731 92.6751 12.2563 92.7139 12.2175L94.1893 12.0781C94.1893 11.9155 94.2125 11.1371 94.259 9.74295C94.6463 9.34795 95.2117 9.04589 95.9552 8.83677C96.7065 8.61991 97.3726 8.51147 97.9534 8.51147C97.845 9.49511 97.7559 10.684 97.6862 12.0781C97.9418 12.0859 98.7125 12.1323 99.9982 12.2175C100.037 12.3492 100.056 12.6009 100.056 12.9727C100.056 13.3444 100.037 13.5691 99.9982 13.6465C99.2856 13.7395 98.4917 13.7975 97.6165 13.8208C97.5855 14.7424 97.5701 15.9081 97.5701 17.3177C97.5701 18.7196 97.601 20.044 97.663 21.291C97.6862 21.7712 97.9263 22.0113 98.3833 22.0113C98.848 22.0113 99.305 21.8796 99.7542 21.6163Z" fill="#F86530"/>
<path d="M88.2574 6.15309C88.7144 5.76583 89.21 5.5722 89.7445 5.5722C90.2789 5.5722 90.7203 5.73873 91.0689 6.07177C91.4174 6.39706 91.5917 6.8579 91.5917 7.45428C91.5917 8.05065 91.3671 8.55409 90.9179 8.96458C90.4686 9.36733 89.9536 9.5687 89.3727 9.5687C88.7996 9.5687 88.3465 9.39056 88.0134 9.03429C87.6881 8.67801 87.5255 8.22105 87.5255 7.6634C87.5255 7.10574 87.7694 6.60231 88.2574 6.15309ZM87.9437 14.6456C87.9437 14.057 87.7385 13.7085 87.328 13.6001C87.0646 13.5149 86.6929 13.4529 86.2127 13.4142C86.1585 13.1818 86.1313 13.0075 86.1313 12.8914C86.1313 12.7674 86.1352 12.6706 86.143 12.6009C87.2583 11.9736 88.6563 11.6599 90.337 11.6599C90.608 11.6599 90.8094 11.6638 90.9411 11.6715C91.158 12.0123 91.309 12.6784 91.3942 13.6698C91.4561 14.119 91.4871 14.7967 91.4871 15.7029C91.4871 16.609 91.4561 19.3663 91.3942 23.9747C90.5345 24.1218 89.818 24.1954 89.2449 24.1954C88.6795 24.1954 88.1993 24.1218 87.8043 23.9747C87.9437 22.1081 88.0134 20.439 88.0134 18.9674C88.0134 17.4881 87.9902 16.0475 87.9437 14.6456Z" fill="#F86530"/>
<path d="M84.4981 22.1159C84.808 22.1159 85.11 22.0152 85.4043 21.8138L85.8807 22.5922C85.3617 23.3744 84.6918 23.9205 83.8708 24.2303C83.53 24.3619 83.1776 24.4278 82.8136 24.4278C82.4496 24.4278 82.0933 24.331 81.7447 24.1373C81.404 23.9515 81.1019 23.7114 80.8386 23.417C80.5752 23.1227 80.3158 22.7548 80.0602 22.3134C79.8123 21.8719 79.6032 21.4498 79.4328 21.047C79.2624 20.6365 79.092 20.1718 78.9216 19.6529C78.7125 19.041 78.4763 18.2123 78.213 17.1667C77.6785 17.9954 77.179 18.6693 76.7143 19.1882C76.7143 20.0866 76.6988 21.6744 76.6678 23.9515C75.9088 24.0986 75.2311 24.1722 74.6347 24.1722C74.0461 24.1722 73.5504 24.0909 73.1476 23.9282C73.3413 22.7587 73.4381 20.5746 73.4381 17.3758C73.4381 14.1771 73.38 11.4275 73.2638 9.12723C73.2018 8.3837 72.71 7.95772 71.7884 7.84928C71.7806 7.80281 71.769 7.73311 71.7535 7.64016C71.7225 7.46203 71.707 7.33423 71.707 7.25678C71.707 7.17158 71.7109 7.098 71.7186 7.03604C73.167 6.4629 74.6463 6.17633 76.1566 6.17633C76.2263 6.17633 76.2999 6.17633 76.3774 6.17633C76.5478 6.39319 76.6523 6.8308 76.691 7.48913C76.7298 8.14747 76.7491 9.48351 76.7491 11.4972C76.7491 13.511 76.7453 15.3621 76.7375 17.0505C77.5972 15.4473 78.3562 14.2932 79.0146 13.5884C79.8201 12.7287 80.4978 12.1904 81.0477 11.9736C81.6053 11.7567 82.1049 11.6483 82.5464 11.6483C83.3209 11.6483 83.9482 11.8651 84.4284 12.2989C84.9164 12.7249 85.1604 13.3019 85.1604 14.0299C85.1604 14.7502 84.9203 15.3272 84.4401 15.761C83.9676 16.1869 83.4022 16.3999 82.7439 16.3999C82.6045 16.3999 82.465 16.3883 82.3256 16.3651C82.3256 15.4821 82.1552 14.8586 81.8145 14.4946C81.6595 14.3242 81.4272 14.239 81.1174 14.239C80.8153 14.239 80.5133 14.363 80.2112 14.6108C79.9091 14.8509 79.5606 15.2343 79.1656 15.761C80.2344 17.674 81.2568 19.2114 82.2327 20.3732C83.2086 21.535 83.9637 22.1159 84.4981 22.1159Z" fill="#F86530"/>
<path d="M71.3281 14.4598C71.3281 15.637 70.7162 16.2256 69.4925 16.2256C69.0742 16.2256 68.7722 16.1792 68.5863 16.0862C68.4004 15.9855 68.3075 15.9275 68.3075 15.912C68.3307 15.7648 68.3423 15.6138 68.3423 15.4589C68.3423 14.7308 68.1061 14.1538 67.6336 13.7278C67.1689 13.2941 66.5416 13.0772 65.7516 13.0772C64.9616 13.0772 64.3265 13.418 63.8463 14.0996C63.3661 14.7734 63.126 15.8229 63.126 17.248C63.126 18.6731 63.5365 19.9317 64.3574 21.0238C65.1862 22.1158 66.1078 22.6619 67.1225 22.6619C67.9977 22.6619 68.8729 22.3095 69.7481 21.6047C69.9494 21.442 70.1508 21.2484 70.3522 21.0238C70.5226 21.1322 70.6968 21.2871 70.875 21.4885C71.0609 21.6821 71.1732 21.868 71.2119 22.0461C70.8479 22.5341 70.298 23.0027 69.5622 23.4519C68.5553 24.056 67.4439 24.3581 66.2279 24.3581C65.0119 24.3581 63.9043 24.1025 62.9052 23.5913C61.9138 23.0801 61.1316 22.3482 60.5584 21.3955C59.9853 20.4429 59.6987 19.3586 59.6987 18.1426C59.6987 15.8035 60.5623 13.9989 62.2895 12.7287C63.397 11.9155 64.7447 11.5089 66.3325 11.5089C67.6724 11.5089 68.838 11.7993 69.8294 12.3802C70.2786 12.6435 70.6388 12.9572 70.9098 13.3212C71.1809 13.6852 71.3203 14.0647 71.3281 14.4598Z" fill="#F86530"/>
<path d="M54.9517 6.15309C55.4087 5.76583 55.9044 5.5722 56.4388 5.5722C56.9732 5.5722 57.4147 5.73873 57.7632 6.07177C58.1117 6.39706 58.286 6.8579 58.286 7.45428C58.286 8.05065 58.0614 8.55409 57.6122 8.96458C57.163 9.36733 56.6479 9.5687 56.067 9.5687C55.4939 9.5687 55.0408 9.39056 54.7078 9.03429C54.3825 8.67801 54.2198 8.22105 54.2198 7.6634C54.2198 7.10574 54.4638 6.60231 54.9517 6.15309ZM54.638 14.6456C54.638 14.057 54.4328 13.7085 54.0223 13.6001C53.759 13.5149 53.3872 13.4529 52.907 13.4142C52.8528 13.1818 52.8257 13.0075 52.8257 12.8914C52.8257 12.7674 52.8296 12.6706 52.8373 12.6009C53.9526 11.9736 55.3506 11.6599 57.0313 11.6599C57.3024 11.6599 57.5038 11.6638 57.6354 11.6715C57.8523 12.0123 58.0033 12.6784 58.0885 13.6698C58.1505 14.119 58.1815 14.7967 58.1815 15.7029C58.1815 16.609 58.1505 19.3663 58.0885 23.9747C57.2288 24.1218 56.5124 24.1954 55.9392 24.1954C55.3738 24.1954 54.8936 24.1218 54.4986 23.9747C54.638 22.1081 54.7078 20.439 54.7078 18.9674C54.7078 17.4881 54.6845 16.0475 54.638 14.6456Z" fill="#F86530"/>
<path d="M52.0984 21.6163C52.3773 21.8719 52.536 22.1352 52.5748 22.4063C51.5524 23.7075 50.3713 24.3581 49.0314 24.3581C48.1561 24.3581 47.5365 24.0095 47.1725 23.3125C46.8627 22.7006 46.673 21.6511 46.6032 20.1641C46.5413 17.8405 46.5103 15.6757 46.5103 13.6697C45.7203 13.6388 45.2362 13.6 45.0581 13.5536C45.0194 13.4916 45 13.2631 45 12.8681C45 12.4731 45.0194 12.2563 45.0581 12.2175L46.5335 12.0781C46.5335 11.9155 46.5568 11.1371 46.6032 9.74295C46.9905 9.34795 47.5559 9.04589 48.2994 8.83677C49.0507 8.61991 49.7168 8.51147 50.2977 8.51147C50.1893 9.49511 50.1002 10.684 50.0305 12.0781C50.2861 12.0859 51.0567 12.1323 52.3424 12.2175C52.3811 12.3492 52.4005 12.6009 52.4005 12.9727C52.4005 13.3444 52.3811 13.5691 52.3424 13.6465C51.6298 13.7395 50.836 13.7975 49.9608 13.8208C49.9298 14.7424 49.9143 15.9081 49.9143 17.3177C49.9143 18.7196 49.9453 20.044 50.0072 21.291C50.0305 21.7712 50.2706 22.0113 50.7275 22.0113C51.1922 22.0113 51.6492 21.8796 52.0984 21.6163Z" fill="#F86530"/>
</svg>
