<svg width="32" height="32" viewBox="0 0 32 32" fill="none" xmlns="http://www.w3.org/2000/svg">
<path d="M6.6665 18.0584C6.6665 17.0493 6.6665 16.5447 6.88817 16.114C7.10983 15.6833 7.52041 15.39 8.34155 14.8035L14.8374 10.1636C15.3987 9.76263 15.6794 9.56216 15.9998 9.56216C16.3203 9.56216 16.601 9.76263 17.1623 10.1636L23.6581 14.8035C24.4793 15.39 24.8898 15.6833 25.1115 16.114C25.3332 16.5447 25.3332 17.0493 25.3332 18.0584V25.9999C25.3332 26.9427 25.3332 27.4141 25.0403 27.707C24.7474 27.9999 24.276 27.9999 23.3332 27.9999H8.6665C7.72369 27.9999 7.25229 27.9999 6.9594 27.707C6.6665 27.4141 6.6665 26.9427 6.6665 25.9999V18.0584Z" fill="#7E869E" fill-opacity="0.25"/>
<path d="M4 16.7199C4 16.9867 4 17.1202 4.0841 17.1613C4.16819 17.2024 4.27352 17.1205 4.48418 16.9567L14.7721 8.95494C15.362 8.49617 15.6569 8.26678 16 8.26678C16.3431 8.26678 16.638 8.49617 17.2279 8.95494L27.5158 16.9567C27.7265 17.1205 27.8318 17.2024 27.9159 17.1613C28 17.1202 28 16.9867 28 16.7199V15.6448C28 15.1644 28 14.9242 27.8983 14.7163C27.7966 14.5084 27.607 14.361 27.2279 14.066L17.2279 6.28827C16.638 5.8295 16.3431 5.60011 16 5.60011C15.6569 5.60011 15.362 5.8295 14.7721 6.28827L4.77212 14.066C4.39295 14.361 4.20337 14.5084 4.10168 14.7163C4 14.9242 4 15.1644 4 15.6448V16.7199Z" fill="#FF5836"/>
<path d="M17.3332 20H14.6665C13.5619 20 12.6665 20.8954 12.6665 22V27.85C12.6665 27.9328 12.7337 28 12.8165 28H19.1832C19.266 28 19.3332 27.9328 19.3332 27.85V22C19.3332 20.8954 18.4377 20 17.3332 20Z" fill="#FF5836"/>
<rect x="21.3335" y="6.66675" width="2.66667" height="5.33333" rx="0.5" fill="#FF5836"/>
</svg>
