<svg width="32" height="32" viewBox="0 0 32 32" fill="none" xmlns="http://www.w3.org/2000/svg">
<path d="M6.6665 16H25.3332V22.6667C25.3332 24.5523 25.3332 25.4951 24.7474 26.0809C24.1616 26.6667 23.2188 26.6667 21.3332 26.6667H10.6665C8.78088 26.6667 7.83808 26.6667 7.25229 26.0809C6.6665 25.4951 6.6665 24.5523 6.6665 22.6667V16Z" fill="#222222"/>
<path fill-rule="evenodd" clip-rule="evenodd" d="M3.48188 10.1487L6.66658 13.3334L6.66658 13.4667V14.6667H7.86658H24.1332H25.3332V13.4667V13.3334L28.5179 10.1487C28.9483 9.71834 28.8977 9.00668 28.4108 8.64155L24.5659 5.75786C24.2267 5.50347 23.764 5.49063 23.4112 5.72581L19.9999 8.00002H11.9999L8.5886 5.72581C8.23583 5.49063 7.77309 5.50347 7.4339 5.75786L3.58899 8.64155C3.10215 9.00668 3.05157 9.71834 3.48188 10.1487ZM20.7332 9.20002L23.9332 13.4667H8.06658L11.2666 9.20002H20.7332Z" fill="#7E869E" fill-opacity="0.25"/>
</svg>
