<svg width="32" height="32" viewBox="0 0 32 32" fill="none" xmlns="http://www.w3.org/2000/svg">
<path d="M4 16C4 9.37258 9.37258 4 16 4C22.6274 4 28 9.37258 28 16C28 22.6274 22.6274 28 16 28C9.37258 28 4 22.6274 4 16Z" fill="#7E869E" fill-opacity="0.25"/>
<circle cx="15.9998" cy="13.3333" r="5.33333" fill="#222222"/>
<path fill-rule="evenodd" clip-rule="evenodd" d="M24.3274 24.3829C24.3847 24.4797 24.367 24.6029 24.2856 24.6806C22.1317 26.7371 19.2134 28 16.0002 28C12.7871 28 9.86891 26.7371 7.71494 24.6807C7.63354 24.603 7.61582 24.4798 7.67318 24.383C9.21389 21.7822 12.3643 20 16.0003 20C19.6363 20 22.7867 21.7821 24.3274 24.3829Z" fill="#222222"/>
</svg>
