<svg width="32" height="32" viewBox="0 0 32 32" fill="none" xmlns="http://www.w3.org/2000/svg">
<path d="M4 11.3333C4 8.50482 4 7.09061 4.87868 6.21193C5.75736 5.33325 7.17157 5.33325 10 5.33325H22C24.8284 5.33325 26.2426 5.33325 27.1213 6.21193C28 7.09061 28 8.50482 28 11.3333V12.3333C28 12.8855 27.5523 13.3333 27 13.3333H26.6667C25.1939 13.3333 24 14.5272 24 15.9999C24 17.4727 25.1939 18.6666 26.6667 18.6666H27C27.5523 18.6666 28 19.1143 28 19.6666V20.6666C28 23.495 28 24.9092 27.1213 25.7879C26.2426 26.6666 24.8284 26.6666 22 26.6666H10C7.17157 26.6666 5.75736 26.6666 4.87868 25.7879C4 24.9092 4 23.495 4 20.6666V19.6666C4 19.1143 4.44772 18.6666 5 18.6666H5.33333C6.80609 18.6666 8 17.4727 8 15.9999C8 14.5272 6.80609 13.3333 5.33333 13.3333H5C4.44772 13.3333 4 12.8855 4 12.3333V11.3333Z" fill="#7E869E" fill-opacity="0.25"/>
<path d="M15.5962 11.2188C15.796 10.9456 16.2037 10.9456 16.4035 11.2188L17.8485 13.1951C17.9103 13.2795 17.9969 13.3425 18.0962 13.3751L20.4224 14.1387C20.744 14.2443 20.87 14.632 20.6719 14.9064L19.2388 16.8915C19.1776 16.9763 19.1445 17.0781 19.1442 17.1827L19.1368 19.631C19.1357 19.9694 18.8059 20.2091 18.4837 20.1055L16.1529 19.356C16.0534 19.324 15.9463 19.324 15.8468 19.356L13.516 20.1055C13.1938 20.2091 12.8639 19.9694 12.8629 19.631L12.8555 17.1827C12.8552 17.0781 12.8221 16.9763 12.7609 16.8915L11.3278 14.9064C11.1297 14.6321 11.2557 14.2443 11.5773 14.1387L13.9035 13.3751C14.0028 13.3425 14.0894 13.2795 14.1511 13.1951L15.5962 11.2188Z" fill="#222222"/>
</svg>
