<svg width="23" height="24" viewBox="0 0 23 24" fill="none" xmlns="http://www.w3.org/2000/svg">
<circle cx="11.5002" cy="12" r="7.66667" fill="white"/>
<path d="M9.104 12L10.9146 13.8106C10.9732 13.8692 11.0682 13.8692 11.1267 13.8106L14.854 10.0833" stroke="#19CFA2" stroke-width="1.2"/>
<path d="M18.6668 12C18.6668 13.4174 18.2465 14.803 17.459 15.9816C16.6715 17.1601 15.5523 18.0787 14.2427 18.6211C12.9332 19.1635 11.4922 19.3055 10.102 19.0289C8.71182 18.7524 7.43484 18.0699 6.43256 17.0676C5.43029 16.0653 4.74773 14.7883 4.4712 13.3981C4.19467 12.0079 4.3366 10.567 4.87903 9.25742C5.42145 7.94788 6.34002 6.8286 7.51858 6.04111C8.69713 5.25363 10.0827 4.83331 11.5002 4.83331" stroke="#19CFA2" stroke-linecap="round"/>
</svg>
