<svg width="18" height="18" viewBox="0 0 18 18" fill="none" xmlns="http://www.w3.org/2000/svg">
<path d="M12.077 6.27566L5.15811 3.96937C4.8578 3.86927 4.70764 3.81921 4.60382 3.89405C4.5 3.96888 4.5 4.12716 4.5 4.44371V9.75L12.077 7.22434C12.6653 7.02824 12.9594 6.93019 12.9594 6.75C12.9594 6.56981 12.6653 6.47176 12.077 6.27566Z" fill="#FF5836"/>
<path d="M4.5 9.75V4.44371C4.5 4.12716 4.5 3.96888 4.60382 3.89405C4.70764 3.81921 4.8578 3.86927 5.15811 3.96937L12.077 6.27566C12.6653 6.47176 12.9594 6.56981 12.9594 6.75C12.9594 6.93019 12.6653 7.02824 12.077 7.22434L4.5 9.75ZM4.5 9.75V13.5V14.25" stroke="#FF5836" stroke-linecap="round"/>
</svg>
