<svg width="18" height="19" viewBox="0 0 18 19" fill="none" xmlns="http://www.w3.org/2000/svg">
<path d="M9.375 6.125L4.55319 10.9468C4.34066 11.1593 4.23439 11.2656 4.16453 11.3962C4.09466 11.5267 4.06519 11.6741 4.00624 11.9688L3.52209 14.3896C3.45557 14.7222 3.4223 14.8885 3.51691 14.9831C3.61152 15.0777 3.77783 15.0444 4.11044 14.9779L6.53121 14.4938C6.82593 14.4348 6.9733 14.4053 7.10385 14.3355C7.23439 14.2656 7.34066 14.1593 7.55319 13.9468L12.375 9.125L9.375 6.125Z" fill="#D2D2D6"/>
<path d="M4.70396 15.13L4.70397 15.13L4.7301 15.1234L4.73012 15.1234L6.35809 14.7164C6.37428 14.7124 6.39043 14.7084 6.40653 14.7044C6.62531 14.65 6.83562 14.5978 7.02707 14.4894C7.21852 14.381 7.37153 14.2275 7.53071 14.0679C7.54243 14.0561 7.55418 14.0444 7.56598 14.0325L12.7993 8.79926L12.8148 8.78377C12.9965 8.60203 13.1574 8.44118 13.28 8.29707C13.4106 8.14364 13.5322 7.97082 13.6039 7.75518L13.0346 7.56574L13.6039 7.75518C13.7131 7.42723 13.7131 7.07277 13.6039 6.74482L13.0547 6.92757L13.6039 6.74482C13.5322 6.52918 13.4106 6.35636 13.28 6.20293C13.1574 6.05882 12.9965 5.89796 12.8147 5.7162L12.7993 5.70074L12.7838 5.68524C12.602 5.50348 12.4412 5.34262 12.2971 5.21998C12.1436 5.08941 11.9708 4.96782 11.7552 4.89606C11.4272 4.78693 11.0728 4.78693 10.7448 4.89606C10.5292 4.96782 10.3564 5.08941 10.2029 5.21998C10.0588 5.34262 9.89796 5.5035 9.7162 5.68527L9.70073 5.70074L4.46745 10.934L4.46745 10.934C4.45564 10.9458 4.44386 10.9576 4.4321 10.9693C4.27248 11.1285 4.11904 11.2815 4.01064 11.4729C3.90225 11.6644 3.84999 11.8747 3.79562 12.0935C3.79162 12.1096 3.78761 12.1257 3.78356 12.1419L3.37003 13.796C3.36762 13.8057 3.36518 13.8154 3.36272 13.8252C3.32411 13.9793 3.28044 14.1535 3.26593 14.3018C3.24978 14.4669 3.25127 14.7662 3.49255 15.0074C3.73383 15.2487 4.03307 15.2502 4.19819 15.2341C4.34646 15.2196 4.52072 15.1759 4.67479 15.1373C4.6846 15.1348 4.69433 15.1324 4.70396 15.13Z" stroke="#FC6546" stroke-width="1.2"/>
<path d="M9.375 6.125L12.375 9.125" stroke="#FC6546" stroke-width="1.2"/>
</svg>
