<svg width="13" height="14" viewBox="0 0 13 14" fill="none" xmlns="http://www.w3.org/2000/svg">
<path d="M11.96 2.36755H1.03997C0.764148 2.36755 0.499635 2.47517 0.304597 2.6667C0.109559 2.85824 0 3.11802 0 3.3889V12.4787C0 12.7495 0.109559 13.0093 0.304597 13.2009C0.499635 13.3924 0.764148 13.5 1.03997 13.5H11.96C12.2358 13.5 12.5004 13.3924 12.6954 13.2009C12.8904 13.0093 13 12.7495 13 12.4787V3.40348C13.002 3.26813 12.9765 3.13375 12.9251 3.00815C12.8738 2.88255 12.7975 2.76824 12.7007 2.67185C12.6039 2.57546 12.4886 2.49891 12.3614 2.44668C12.2343 2.39444 12.0978 2.36754 11.96 2.36755ZM11.7817 11.326C11.7817 11.5195 11.7034 11.7051 11.5641 11.8419C11.4248 11.9787 11.2359 12.0555 11.0388 12.0555H1.97598C1.77896 12.0555 1.59002 11.9787 1.45071 11.8419C1.3114 11.7051 1.23312 11.5195 1.23312 11.326V5.57745C1.23312 5.38397 1.3114 5.1984 1.45071 5.06159C1.59002 4.92478 1.77896 4.84793 1.97598 4.84793H11.0388C11.2347 4.85167 11.4214 4.92972 11.5599 5.06573C11.6984 5.20174 11.7779 5.38514 11.7817 5.57745V11.326Z" fill="#FF5836"/>
<path d="M3.03109 3.89954C2.76709 3.89954 2.51386 3.79657 2.32718 3.61324C2.1405 3.42991 2.03564 3.18126 2.03564 2.92199V1.46296C2.03564 1.2037 2.1405 0.955061 2.32718 0.771735C2.51386 0.588408 2.76709 0.485409 3.03109 0.485409C3.16181 0.485409 3.29123 0.510685 3.412 0.559812C3.53277 0.608939 3.64252 0.68096 3.73496 0.771735C3.82739 0.862509 3.90071 0.97027 3.95073 1.08887C4.00076 1.20747 4.0265 1.33459 4.0265 1.46296V2.92199C4.0265 3.05037 4.00076 3.17748 3.95073 3.29608C3.90071 3.41468 3.82739 3.52247 3.73496 3.61324C3.64252 3.70402 3.53277 3.77602 3.412 3.82514C3.29123 3.87427 3.16181 3.89954 3.03109 3.89954Z" fill="#FF5836"/>
<path d="M9.96904 3.89954C9.70503 3.89954 9.45185 3.79657 9.26517 3.61324C9.07849 3.42991 8.97363 3.18126 8.97363 2.92199V1.46296C8.97363 1.2037 9.07849 0.955061 9.26517 0.771735C9.45185 0.588408 9.70503 0.485409 9.96904 0.485409C10.0998 0.485409 10.2292 0.510685 10.35 0.559812C10.4708 0.608939 10.5805 0.68096 10.6729 0.771735C10.7653 0.862509 10.8387 0.97027 10.8887 1.08887C10.9387 1.20747 10.9645 1.33459 10.9645 1.46296V2.92199C10.9645 3.05037 10.9387 3.17748 10.8887 3.29608C10.8387 3.41468 10.7653 3.52247 10.6729 3.61324C10.5805 3.70402 10.4708 3.77602 10.35 3.82514C10.2292 3.87427 10.0998 3.89954 9.96904 3.89954Z" fill="#FF5836"/>
<path d="M4.11534 6.58418H3.13477V7.54714H4.11534V6.58418Z" fill="#FF5836"/>
<path d="M6.99766 6.58418H6.01709V7.54714H6.99766V6.58418Z" fill="#FF5836"/>
<path d="M9.86534 6.58418H8.88477V7.54714H9.86534V6.58418Z" fill="#FF5836"/>
<path d="M4.11534 9.21044H3.13477V10.1734H4.11534V9.21044Z" fill="#FF5836"/>
<path d="M6.99766 9.21044H6.01709V10.1734H6.99766V9.21044Z" fill="#FF5836"/>
<path d="M9.86534 9.21044H8.88477V10.1734H9.86534V9.21044Z" fill="#FF5836"/>
</svg>
