<svg width="151" height="150" viewBox="0 0 151 150" fill="none" xmlns="http://www.w3.org/2000/svg">
<g clip-path="url(#clip0_259_1950)">
<rect x="0.5" width="150" height="150" rx="75" fill="#F2F1FF"/>
<path d="M56.1317 94.0784C56.1317 94.0784 49.5557 92.9713 50.285 88.6461C51.0547 84.104 56.1317 85.7775 56.1317 85.7775V94.0784Z" fill="#EBBE8F"/>
<path d="M58.0607 84.5594C58.0607 84.5594 51.5353 83.4689 52.2146 79.1277C52.9266 74.5735 58.0607 76.2592 58.0607 76.2592V84.5594Z" fill="#EBBE8F"/>
<path d="M138.531 152.296L127.844 137.958C127.091 136.949 126.541 135.803 126.222 134.585L121.055 114.817C119.08 107.257 116.1 99.9969 112.195 93.2296L101.398 74.5183C100.07 72.2164 98.0244 70.4129 95.5743 69.3836L80.5351 63.0648L94.5666 84.5593L87.8084 103.427H57.7628C56.6324 103.427 55.5482 103.876 54.7489 104.675C53.9495 105.474 53.5005 106.558 53.5005 107.689C53.5005 108.801 53.9422 109.867 54.7284 110.653C55.5146 111.44 56.581 111.881 57.6929 111.881H72.7558C73.8561 111.881 74.9367 112.174 75.8868 112.729C76.8369 113.284 77.6225 114.081 78.1631 115.04L86.9335 130.591C91.1105 136.57 96.1421 141.903 101.867 146.421L107.105 152.296H138.531Z" fill="#F6C8A0"/>
<g style="mix-blend-mode:multiply" opacity="0.44">
<path d="M117.322 152.296L96.1676 107.987L115.924 117.6L97.8078 100.473L95.1663 72.1379L87.8084 103.429H57.6929C56.581 103.429 55.5146 103.87 54.7284 104.656C53.9422 105.443 53.5005 106.509 53.5005 107.621V107.691C53.5005 108.803 53.9422 109.869 54.7284 110.655C55.5146 111.442 56.581 111.883 57.6929 111.883H72.7558C73.8561 111.883 74.9366 112.176 75.8868 112.731C76.8369 113.286 77.6225 114.083 78.1631 115.042L86.9335 130.593C91.1105 136.572 96.142 141.905 101.867 146.423L107.105 152.298L117.322 152.296Z" fill="#F6C1A0"/>
</g>
<path d="M92.7508 26.7178H55.067C53.7329 26.7178 52.6514 27.7993 52.6514 29.1334V100.983C52.6514 102.317 53.7329 103.398 55.067 103.398H92.7508C94.0849 103.398 95.1665 102.317 95.1665 100.983V29.1334C95.1665 27.7993 94.0849 26.7178 92.7508 26.7178Z" fill="#C3BEFE"/>
<g opacity="0.36">
<path d="M56.8965 31.2784H64.9683" stroke="white" stroke-width="2" stroke-miterlimit="10" stroke-linecap="round"/>
<path d="M64.9932 98.444H82.8245" stroke="white" stroke-width="2" stroke-miterlimit="10" stroke-linecap="round"/>
<path d="M86.8149 31.2784H90.8509" stroke="white" stroke-width="2" stroke-miterlimit="10" stroke-linecap="round"/>
<path d="M83.8931 31.2784H85.5005" stroke="white" stroke-width="2" stroke-miterlimit="10" stroke-linecap="round"/>
</g>
<path d="M115.149 147.82L105.429 142.343C101.221 140.077 97.6098 136.845 94.8924 132.914C92.175 128.982 90.4286 124.462 89.7964 119.724C89.5471 117.858 88.8709 116.075 87.8206 114.512C86.7702 112.949 85.3739 111.65 83.74 110.715L72.2974 102.581C71.1289 101.666 70.3642 100.33 70.1665 98.8594C69.9687 97.3885 70.3536 95.8986 71.239 94.7076C72.0159 93.6632 73.1274 92.9169 74.3882 92.593C75.6489 92.2692 76.9825 92.3875 78.1665 92.9282L79.4558 93.5177C85.8255 96.43 91.882 99.9835 97.5315 104.123L115.922 117.6L115.149 147.82Z" fill="#F6CBA0"/>
<path d="M72.3799 101.385C71.4149 100.628 70.7835 99.525 70.6204 98.3097C70.4573 97.0944 70.7754 95.8635 71.507 94.8794C71.9459 94.2922 72.5155 93.8151 73.1707 93.486C73.8259 93.1569 74.5486 92.9848 75.2818 92.9833C75.956 92.9825 76.6223 93.1278 77.235 93.4092L79.4973 94.4433L74.115 102.618L72.3799 101.385Z" fill="#FFDAB5"/>
<path d="M75.2818 93.1116C75.9374 93.1108 76.5855 93.2521 77.1811 93.526L79.3075 94.4978L74.0811 102.437L72.4563 101.282C71.8483 100.805 71.371 100.182 71.0689 99.471C70.7669 98.7597 70.6501 97.9836 70.7292 97.2149C70.8084 96.4463 71.081 95.7102 71.5217 95.0754C71.9623 94.4407 72.5566 93.9279 73.2491 93.585C73.8813 93.2726 74.5767 93.1098 75.2818 93.1091M75.2818 92.8525C74.5283 92.8522 73.7851 93.0283 73.1118 93.3667C72.4385 93.7051 71.8538 94.1963 71.4043 94.8012C70.6524 95.8123 70.3254 97.0773 70.4932 98.3261C70.661 99.575 71.3102 100.709 72.3024 101.486L74.1484 102.798L79.686 94.3868L77.2876 93.2906C76.6581 93.002 75.9737 92.8526 75.2812 92.8525H75.2818Z" fill="#F2C494"/>
<g style="mix-blend-mode:multiply" opacity="0.19">
<path d="M92.1752 50.8243H44.6306C43.8851 50.8243 43.1702 51.1204 42.6431 51.6475C42.116 52.1747 41.8198 52.8896 41.8198 53.6351V75.0591C41.8198 75.8045 42.116 76.5195 42.6431 77.0466C43.1702 77.5737 43.8851 77.8698 44.6306 77.8698H78.5979L81.5755 82.2425L84.6941 77.8698H92.1752C92.9207 77.8698 93.6356 77.5737 94.1627 77.0466C94.6899 76.5195 94.986 75.8045 94.986 75.0591V53.6351C94.986 52.8896 94.6899 52.1747 94.1627 51.6475C93.6356 51.1204 92.9207 50.8243 92.1752 50.8243Z" fill="#FC6546"/>
</g>
<path d="M88.7514 47.4888H41.2068C40.4613 47.4888 39.7464 47.7849 39.2193 48.312C38.6921 48.8392 38.396 49.5541 38.396 50.2995V71.7236C38.396 72.469 38.6921 73.184 39.2193 73.7111C39.7464 74.2382 40.4613 74.5343 41.2068 74.5343H75.1741L78.1516 78.907L81.2703 74.5343H88.7514C89.4969 74.5343 90.2118 74.2382 90.7389 73.7111C91.266 73.184 91.5622 72.469 91.5622 71.7236V50.2995C91.5622 49.9304 91.4895 49.5649 91.3482 49.2239C91.207 48.8829 90.9999 48.573 90.7389 48.312C90.4779 48.051 90.1681 47.844 89.827 47.7027C89.486 47.5615 89.1205 47.4888 88.7514 47.4888Z" fill="#F7F7F7"/>
<path d="M85.5245 59.9475H63.8984V67.1868H85.5245V59.9475Z" fill="#FBFAF3"/>
<path d="M67.9263 62.6183V65.0237" stroke="#666666" stroke-width="0.3" stroke-miterlimit="10" stroke-linecap="square"/>
<path d="M68.9547 63.1964L66.8989 64.4459" stroke="#666666" stroke-width="0.3" stroke-miterlimit="10" stroke-linecap="square"/>
<path d="M66.8989 63.1964L68.9547 64.4459" stroke="#666666" stroke-width="0.3" stroke-miterlimit="10" stroke-linecap="square"/>
<path d="M72.3926 62.6183V65.0237" stroke="#666666" stroke-width="0.3" stroke-miterlimit="10" stroke-linecap="square"/>
<path opacity="0.2" d="M73.4199 63.1964L71.3647 64.4459" stroke="#666666" stroke-width="0.3" stroke-miterlimit="10" stroke-linecap="square"/>
<path d="M71.3647 63.1964L73.4199 64.4459" stroke="#666666" stroke-width="0.3" stroke-miterlimit="10" stroke-linecap="square"/>
<path d="M76.8579 62.6183V65.0237" stroke="#666666" stroke-width="0.3" stroke-miterlimit="10" stroke-linecap="square"/>
<path d="M77.8854 63.1964L75.8296 64.4459" stroke="#666666" stroke-width="0.3" stroke-miterlimit="10" stroke-linecap="square"/>
<path d="M75.8296 63.1964L77.8854 64.4459" stroke="#666666" stroke-width="0.3" stroke-miterlimit="10" stroke-linecap="square"/>
<path d="M81.3228 62.6184V65.0238" stroke="#666666" stroke-width="0.3" stroke-miterlimit="10" stroke-linecap="square"/>
<path d="M82.3512 63.1964L80.2954 64.4459" stroke="#666666" stroke-width="0.3" stroke-miterlimit="10" stroke-linecap="square"/>
<path d="M80.2954 63.1964L82.3512 64.4459" stroke="#666666" stroke-width="0.3" stroke-miterlimit="10" stroke-linecap="square"/>
<g opacity="0.6">
<path d="M64.3306 67.6372H85.092" stroke="#6F6F6F" stroke-miterlimit="10" stroke-linecap="square"/>
<path d="M64.5293 56.6543H78.8513" stroke="#6F6F6F" stroke-miterlimit="10" stroke-linecap="square"/>
<path d="M64.5293 54.4375H73.7961" stroke="#6F6F6F" stroke-miterlimit="10" stroke-linecap="square"/>
<path d="M71.6904 54.4375H83.0625" stroke="#6F6F6F" stroke-miterlimit="10" stroke-linecap="square"/>
</g>
<path d="M51.8427 69.1944C51.6341 69.1948 51.4335 69.1146 51.2827 68.9706L45.7978 63.7486C45.3998 63.3692 45.1478 62.862 45.0858 62.3156L44.2211 54.6319C44.2052 54.4911 44.2174 54.3486 44.2571 54.2126C44.2967 54.0766 44.363 53.9499 44.452 53.8397C44.5411 53.7295 44.6511 53.6381 44.7757 53.5709C44.9004 53.5036 45.0372 53.4617 45.1781 53.4478L47.9947 53.1687C49.2679 53.0405 50.5604 52.9763 51.8433 52.9763C53.1262 52.9763 54.4174 53.0405 55.6919 53.1687L58.5085 53.4478C58.6494 53.4618 58.7862 53.5037 58.9108 53.571C59.0355 53.6383 59.1455 53.7297 59.2346 53.8398C59.3237 53.95 59.39 54.0767 59.4298 54.2126C59.4695 54.3486 59.4819 54.4911 59.4662 54.6319L58.6009 62.3156C58.5389 62.862 58.2869 63.3692 57.8889 63.7486L52.4046 68.9706C52.2532 69.1149 52.0519 69.1951 51.8427 69.1944Z" fill="#FC6546"/>
<path d="M51.8423 53.46C53.1107 53.46 54.3773 53.5226 55.6422 53.6479L58.4587 53.9269C58.5363 53.9346 58.6115 53.9576 58.6801 53.9946C58.7486 54.0316 58.8092 54.0818 58.8582 54.1424C58.9072 54.2029 58.9436 54.2726 58.9655 54.3474C58.9873 54.4222 58.9941 54.5006 58.9854 54.578L58.1201 62.2618C58.0711 62.6956 57.871 63.0984 57.555 63.3997L52.07 68.6223C52.0085 68.6807 51.9269 68.7133 51.842 68.7133C51.7571 68.7133 51.6755 68.6807 51.614 68.6223L46.1297 63.3997C45.8136 63.0984 45.6135 62.6956 45.5646 62.2618L44.6993 54.578C44.6906 54.5006 44.6973 54.4223 44.7191 54.3475C44.7409 54.2728 44.7773 54.2031 44.8262 54.1426C44.8752 54.082 44.9356 54.0318 45.0041 53.9947C45.0726 53.9577 45.1478 53.9347 45.2253 53.9269L48.0418 53.6479C49.3054 53.5226 50.5723 53.46 51.8423 53.46ZM51.8423 52.4978C50.5466 52.4978 49.2362 52.5619 47.9469 52.6902L45.1303 52.9693C44.9259 52.9895 44.7275 53.0501 44.5467 53.1476C44.3659 53.2452 44.2062 53.3777 44.0771 53.5375C43.9479 53.6972 43.8518 53.8811 43.7943 54.0783C43.7369 54.2756 43.7192 54.4822 43.7422 54.6864L44.6069 62.3702C44.6817 63.0287 44.9855 63.6401 45.4652 64.0976L50.9501 69.3201C51.1906 69.549 51.5099 69.6767 51.842 69.6767C52.174 69.6767 52.4934 69.549 52.7339 69.3201L58.2188 64.0976C58.6989 63.6404 59.0028 63.0289 59.0771 62.3702L59.9424 54.6864C59.9653 54.4822 59.9474 54.2755 59.8899 54.0783C59.8323 53.8811 59.7361 53.6973 59.6069 53.5376C59.4777 53.3779 59.3181 53.2454 59.1373 53.1478C58.9565 53.0502 58.7581 52.9895 58.5537 52.9693L55.7371 52.6902C54.4478 52.5619 53.1374 52.4978 51.8423 52.4978Z" fill="#C3BEFE"/>
<path d="M47.5 61.2294L49.3923 63L56.5 56" stroke="#FDFDFD" stroke-miterlimit="10"/>
</g>
<defs>
<clipPath id="clip0_259_1950">
<rect x="0.5" width="150" height="150" rx="75" fill="white"/>
</clipPath>
</defs>
</svg>
