<svg width="70" height="71" viewBox="0 0 70 71" fill="none" xmlns="http://www.w3.org/2000/svg">
<path d="M30.3337 2.61528C32.6888 -0.490574 37.3112 -0.490574 39.6663 2.61528L42.405 6.22695C43.7967 8.06221 46.1116 8.91553 48.3424 8.41562L52.7326 7.43182C56.508 6.5858 60.0489 9.59501 59.8819 13.5074L59.6876 18.057C59.5889 20.3689 60.8206 22.5296 62.8468 23.5989L66.8343 25.7033C70.2633 27.513 71.066 32.1234 68.4549 35.0117L65.4185 38.3704C63.8756 40.0772 63.4479 42.5342 64.3214 44.6725L66.0403 48.8804C67.5186 52.499 65.2074 56.5533 61.374 57.066L56.9163 57.6623C54.6512 57.9653 52.7641 59.569 52.0761 61.7757L50.7223 66.1182C49.558 69.8525 45.2144 71.4537 41.9524 69.351L38.1592 66.9058C36.2317 65.6632 33.7683 65.6632 31.8408 66.9058L28.0476 69.351C24.7856 71.4537 20.442 69.8525 19.2777 66.1182L17.9239 61.7757C17.2359 59.569 15.3488 57.9653 13.0837 57.6623L8.62599 57.066C4.79264 56.5533 2.48143 52.499 3.95966 48.8804L5.67864 44.6725C6.55213 42.5342 6.12435 40.0772 4.58145 38.3704L1.54511 35.0117C-1.06598 32.1234 -0.263313 27.513 3.1657 25.7033L7.15318 23.5989C9.1794 22.5296 10.4111 20.3689 10.3124 18.057L10.1181 13.5074C9.95107 9.59501 13.492 6.5858 17.2674 7.43182L21.6576 8.41562C23.8884 8.91553 26.2033 8.06221 27.595 6.22695L30.3337 2.61528Z" fill="#FC6546"/>
<path d="M29.9823 40.4457C29.4703 40.4457 28.9689 40.3924 28.4783 40.2857C27.9983 40.1897 27.5503 40.0457 27.1343 39.8537C26.7183 39.6617 26.3556 39.4324 26.0463 39.1657L26.7183 37.5977C27.2196 37.9817 27.7316 38.2644 28.2543 38.4457C28.7769 38.627 29.3316 38.7177 29.9183 38.7177C30.3876 38.7177 30.7823 38.6537 31.1023 38.5257C31.4223 38.3977 31.6623 38.2057 31.8223 37.9497C31.9929 37.6937 32.0783 37.3844 32.0783 37.0217C32.0783 36.4884 31.8969 36.0937 31.5343 35.8377C31.1823 35.571 30.6649 35.4377 29.9823 35.4377H28.1743V33.7417H29.7903C30.1956 33.7417 30.5423 33.6777 30.8303 33.5497C31.1183 33.411 31.3423 33.219 31.5023 32.9737C31.6623 32.7284 31.7423 32.4297 31.7423 32.0777C31.7423 31.587 31.5769 31.2137 31.2463 30.9577C30.9263 30.7017 30.4569 30.5737 29.8383 30.5737C29.2836 30.5737 28.7663 30.6697 28.2863 30.8617C27.8063 31.043 27.3476 31.331 26.9103 31.7257L26.2383 30.1897C26.6863 29.763 27.2463 29.4324 27.9183 29.1977C28.5903 28.963 29.2889 28.8457 30.0143 28.8457C30.7929 28.8457 31.4596 28.9684 32.0143 29.2137C32.5689 29.4484 32.9903 29.7897 33.2783 30.2377C33.5769 30.675 33.7263 31.2084 33.7263 31.8377C33.7263 32.5097 33.5396 33.091 33.1663 33.5817C32.7929 34.0617 32.2809 34.3817 31.6303 34.5417V34.3497C32.1423 34.435 32.5796 34.6057 32.9423 34.8617C33.3049 35.1177 33.5822 35.443 33.7743 35.8377C33.9663 36.2324 34.0623 36.6857 34.0623 37.1977C34.0623 37.859 33.8969 38.435 33.5663 38.9257C33.2356 39.4164 32.7663 39.795 32.1583 40.0617C31.5503 40.3177 30.8249 40.4457 29.9823 40.4457ZM39.8 40.4457C38.9147 40.4457 38.1627 40.2217 37.544 39.7737C36.936 39.315 36.472 38.6537 36.152 37.7897C35.8427 36.9257 35.688 35.8697 35.688 34.6217C35.688 33.363 35.8427 32.307 36.152 31.4537C36.472 30.5897 36.936 29.939 37.544 29.5017C38.1627 29.0644 38.9147 28.8457 39.8 28.8457C40.696 28.8457 41.448 29.0644 42.056 29.5017C42.6747 29.939 43.1387 30.5844 43.448 31.4377C43.7573 32.291 43.912 33.347 43.912 34.6057C43.912 35.8537 43.752 36.915 43.432 37.7897C43.1227 38.6537 42.664 39.315 42.056 39.7737C41.448 40.2217 40.696 40.4457 39.8 40.4457ZM39.8 38.7657C40.5253 38.7657 41.0587 38.435 41.4 37.7737C41.752 37.1017 41.928 36.0457 41.928 34.6057C41.928 33.1764 41.752 32.1417 41.4 31.5017C41.0587 30.851 40.5253 30.5257 39.8 30.5257C39.0853 30.5257 38.552 30.851 38.2 31.5017C37.848 32.1417 37.672 33.1817 37.672 34.6217C37.672 36.051 37.848 37.1017 38.2 37.7737C38.552 38.435 39.0853 38.7657 39.8 38.7657Z" fill="white"/>
</svg>
