<svg width="70" height="71" viewBox="0 0 70 71" fill="none" xmlns="http://www.w3.org/2000/svg">
<path d="M30.3337 2.61528C32.6888 -0.490574 37.3112 -0.490574 39.6663 2.61528L42.405 6.22695C43.7967 8.06221 46.1116 8.91553 48.3424 8.41562L52.7326 7.43182C56.508 6.5858 60.0489 9.59501 59.8819 13.5074L59.6876 18.057C59.5889 20.3689 60.8206 22.5296 62.8468 23.5989L66.8343 25.7033C70.2633 27.513 71.066 32.1234 68.4549 35.0117L65.4185 38.3704C63.8756 40.0772 63.4479 42.5342 64.3214 44.6725L66.0403 48.8804C67.5186 52.499 65.2074 56.5533 61.374 57.066L56.9163 57.6623C54.6512 57.9653 52.7641 59.569 52.0761 61.7757L50.7223 66.1182C49.558 69.8525 45.2144 71.4537 41.9524 69.351L38.1592 66.9058C36.2317 65.6632 33.7683 65.6632 31.8408 66.9058L28.0476 69.351C24.7856 71.4537 20.442 69.8525 19.2777 66.1182L17.9239 61.7757C17.2359 59.569 15.3488 57.9653 13.0837 57.6623L8.62599 57.066C4.79264 56.5533 2.48143 52.499 3.95966 48.8804L5.67864 44.6725C6.55213 42.5342 6.12435 40.0772 4.58145 38.3704L1.54511 35.0117C-1.06598 32.1234 -0.263313 27.513 3.1657 25.7033L7.15318 23.5989C9.1794 22.5296 10.4111 20.3689 10.3124 18.057L10.1181 13.5074C9.95107 9.59501 13.492 6.5858 17.2674 7.43182L21.6576 8.41562C23.8884 8.91553 26.2033 8.06221 27.595 6.22695L30.3337 2.61528Z" fill="#FC6546"/>
</svg>
