<svg width="154" height="154" viewBox="0 0 154 154" fill="none" xmlns="http://www.w3.org/2000/svg">
<g clip-path="url(#clip0_259_1905)">
<circle cx="80" cy="84" r="80" fill="#FFD8D6"/>
<rect x="24" y="52" width="112" height="137" rx="12" fill="#FFBEBA"/>
<rect x="44" y="132" width="72" height="6" rx="3" fill="#F6F9FB"/>
<rect x="56" y="142" width="48" height="4" rx="2" fill="#F6F9FB"/>
<g clip-path="url(#clip1_259_1905)">
<rect x="36" y="69" width="88" height="51" rx="6" fill="#FAFBFD"/>
<path d="M82.9869 107.513C90.1738 105.587 94.4389 98.2001 92.5131 91.0132C90.5874 83.8262 83.2001 79.5612 76.0131 81.4869C68.8262 83.4126 64.5611 90.7999 66.4869 97.9869C68.4126 105.174 75.7999 109.439 82.9869 107.513Z" fill="#D4DCE1"/>
<path d="M76.0825 96.1643L76.4015 97.3549L75.3049 97.6487L75.5442 98.5417L74.1342 98.9195L73.8949 98.0265L70.0254 99.0634L69.7063 97.8728L72.665 93.4363L74.0749 93.0585L74.9859 96.4581L76.0825 96.1643ZM71.226 97.4656L73.5759 96.8359L73.0428 94.8463L71.226 97.4656ZM80.2415 97.367C78.0639 97.9505 76.7613 97.2249 76.2723 95.3998C75.7853 93.5825 76.5527 92.3106 78.7303 91.7272C80.9001 91.1458 82.2106 91.8693 82.6954 93.6787C83.1824 95.496 82.4113 96.7856 80.2415 97.367ZM79.9246 96.1842C81.1623 95.8526 81.5604 95.0827 81.2855 94.0565C81.0126 93.0382 80.2849 92.5783 79.0473 92.91C77.8096 93.2416 77.4073 93.9959 77.6822 95.022C77.9593 96.056 78.687 96.5158 79.9246 96.1842ZM89.7122 92.5122L90.0312 93.7028L88.9346 93.9967L89.1739 94.8897L87.7639 95.2675L87.5246 94.3745L83.655 95.4113L83.336 94.2207L86.2947 89.7843L87.7046 89.4065L88.6155 92.806L89.7122 92.5122ZM84.8556 93.8135L87.2056 93.1838L86.6725 91.1942L84.8556 93.8135Z" fill="white"/>
</g>
</g>
<circle cx="131.25" cy="22.75" r="20.75" fill="#FF5470" stroke="white" stroke-width="4"/>
<path fill-rule="evenodd" clip-rule="evenodd" d="M140.25 22.75C140.25 27.7206 136.221 31.75 131.25 31.75C126.279 31.75 122.25 27.7206 122.25 22.75C122.25 17.7794 126.279 13.75 131.25 13.75C136.221 13.75 140.25 17.7794 140.25 22.75ZM131.25 19.375C130.835 19.375 130.471 19.5991 130.275 19.9383C129.964 20.4761 129.276 20.6599 128.738 20.3488C128.2 20.0377 128.016 19.3495 128.327 18.8117C128.909 17.8058 129.999 17.125 131.25 17.125C133.114 17.125 134.625 18.636 134.625 20.5C134.625 21.9695 133.686 23.2196 132.375 23.683V23.875C132.375 24.4963 131.871 25 131.25 25C130.629 25 130.125 24.4963 130.125 23.875V22.75C130.125 22.1287 130.629 21.625 131.25 21.625C131.871 21.625 132.375 21.1213 132.375 20.5C132.375 19.8787 131.871 19.375 131.25 19.375ZM131.25 28.375C131.871 28.375 132.375 27.8713 132.375 27.25C132.375 26.6287 131.871 26.125 131.25 26.125C130.629 26.125 130.125 26.6287 130.125 27.25C130.125 27.8713 130.629 28.375 131.25 28.375Z" fill="white"/>
<defs>
<clipPath id="clip0_259_1905">
<rect y="4" width="150" height="150" rx="75" fill="white"/>
</clipPath>
<clipPath id="clip1_259_1905">
<rect x="36" y="69" width="88" height="51" rx="6" fill="white"/>
</clipPath>
</defs>
</svg>
