<svg width="18" height="19" viewBox="0 0 18 19" fill="none" xmlns="http://www.w3.org/2000/svg">
<path d="M12.077 6.31649L5.15811 4.0102C4.8578 3.9101 4.70764 3.86005 4.60382 3.93488C4.5 4.00971 4.5 4.16799 4.5 4.48455V9.79083L12.077 7.26517C12.6653 7.06907 12.9594 6.97102 12.9594 6.79083C12.9594 6.61064 12.6653 6.51259 12.077 6.31649Z" fill="#7E869E" fill-opacity="0.25"/>
<path d="M4.5 9.79083V4.48455C4.5 4.16799 4.5 4.00971 4.60382 3.93488C4.70764 3.86005 4.8578 3.9101 5.15811 4.0102L12.077 6.31649C12.6653 6.51259 12.9594 6.61064 12.9594 6.79083C12.9594 6.97102 12.6653 7.06907 12.077 7.26517L4.5 9.79083ZM4.5 9.79083V13.5408V14.2908" stroke="#222222" stroke-linecap="round"/>
</svg>
