<svg width="18" height="20" viewBox="0 0 18 20" fill="none" xmlns="http://www.w3.org/2000/svg">
<path fill-rule="evenodd" clip-rule="evenodd" d="M10.6667 4.08167H6.25C6.01786 4.08167 5.90179 4.08167 5.80379 4.08809C4.30152 4.18655 3.10489 5.38319 3.00642 6.88546C3 6.98345 3 7.09952 3 7.33166V7.87333C3 8.17249 3.24251 8.415 3.54167 8.415H3.72222C4.51997 8.415 5.16667 9.0617 5.16667 9.85944C5.16667 10.6572 4.51997 11.3039 3.72222 11.3039H3.54167C3.24251 11.3039 3 11.5464 3 11.8456V12.3872C3 12.6194 3 12.7354 3.00642 12.8334C3.10489 14.3357 4.30152 15.5323 5.80379 15.6308C5.90179 15.6372 6.01786 15.6372 6.25 15.6372H10.6667V14.915C10.6667 14.3627 11.1144 13.915 11.6667 13.915V13.0261C11.1144 13.0261 10.6667 12.5784 10.6667 12.0261V11.3039C10.6667 10.7516 11.1144 10.3039 11.6667 10.3039V9.415C11.1144 9.415 10.6667 8.96728 10.6667 8.415V7.69278C10.6667 7.14049 11.1144 6.69278 11.6667 6.69278V5.80389C11.1144 5.80389 10.6667 5.35617 10.6667 4.80389V4.08167Z" fill="#222222"/>
<path fill-rule="evenodd" clip-rule="evenodd" d="M11.6665 5.80389V6.69278C12.2188 6.69278 12.6665 7.14049 12.6665 7.69278V8.415C12.6665 8.96728 12.2188 9.415 11.6665 9.415V10.3039C12.2188 10.3039 12.6665 10.7516 12.6665 11.3039V12.0261C12.6665 12.5784 12.2188 13.0261 11.6665 13.0261V13.915C12.2188 13.915 12.6665 14.3627 12.6665 14.915V15.6372H12.7498C12.982 15.6372 13.098 15.6372 13.196 15.6308C14.6983 15.5323 15.8949 14.3357 15.9934 12.8334C15.9998 12.7354 15.9998 12.6194 15.9998 12.3872V11.8456C15.9998 11.5464 15.7573 11.3039 15.4582 11.3039H15.2776C14.4799 11.3039 13.8332 10.6572 13.8332 9.85944C13.8332 9.0617 14.4799 8.415 15.2776 8.415H15.4582C15.7573 8.415 15.9998 8.17249 15.9998 7.87333V7.33167C15.9998 7.09952 15.9998 6.98345 15.9934 6.88546C15.8949 5.38319 14.6983 4.18655 13.196 4.08809C13.098 4.08167 12.982 4.08167 12.7498 4.08167H12.6665V4.80389C12.6665 5.35617 12.2188 5.80389 11.6665 5.80389Z" fill="#7E869E" fill-opacity="0.25"/>
</svg>
