<svg width="15" height="14" viewBox="0 0 15 14" fill="none" xmlns="http://www.w3.org/2000/svg">
<g clip-path="url(#clip0_634_3119)">
<path d="M6.7013 2.92664C7.00067 2.00538 8.30401 2.00538 8.60339 2.92664L8.99956 4.14577C9.13344 4.55776 9.51737 4.8367 9.95057 4.83672L11.2325 4.83676C12.2011 4.8368 12.6039 6.07635 11.8202 6.64576L10.7832 7.39927C10.4327 7.65391 10.2861 8.10525 10.4199 8.51725L10.816 9.73641C11.1153 10.6577 10.0609 11.4238 9.27719 10.8544L8.2401 10.101C7.88962 9.84638 7.41506 9.84638 7.06459 10.101L6.02749 10.8544C5.24379 11.4238 4.18937 10.6577 4.48867 9.73641L4.88475 8.51725C5.0186 8.10525 4.87195 7.65391 4.5215 7.39927L3.48446 6.64576C2.7008 6.07635 3.10355 4.8368 4.07224 4.83676L5.35412 4.83672C5.78732 4.8367 6.17125 4.55776 6.30513 4.14577L6.7013 2.92664Z" stroke="#FF3C13"/>
</g>
<defs>
<clipPath id="clip0_634_3119">
<rect width="14" height="14" fill="white" transform="translate(0.652344)"/>
</clipPath>
</defs>
</svg>
