<svg width="18" height="19" viewBox="0 0 18 19" fill="none" xmlns="http://www.w3.org/2000/svg">
<path fill-rule="evenodd" clip-rule="evenodd" d="M4.875 3.91207C4.875 3.8305 4.79463 3.77326 4.71927 3.80448C3.73915 4.21046 2.96046 4.98915 2.55448 5.96927C2.25 6.70435 2.25 7.63623 2.25 9.5C2.25 11.3638 2.25 12.2956 2.55448 13.0307C2.96046 14.0108 3.73915 14.7895 4.71927 15.1955C5.45435 15.5 6.38623 15.5 8.25 15.5H9.75C11.6138 15.5 12.5456 15.5 13.2807 15.1955C14.2608 14.7895 15.0395 14.0108 15.4455 13.0307C15.75 12.2956 15.75 11.3638 15.75 9.5C15.75 7.63623 15.75 6.70435 15.4455 5.96927C15.0395 4.98915 14.2608 4.21046 13.2807 3.80448C13.2054 3.77326 13.125 3.83049 13.125 3.91207L13.125 5.375C13.125 6.20343 12.4534 6.875 11.625 6.875C10.7966 6.875 10.125 6.20343 10.125 5.375L10.125 3.79985C10.125 3.65853 10.125 3.58787 10.0811 3.54394C10.0371 3.50001 9.96651 3.50001 9.82526 3.5C9.80034 3.5 9.77526 3.5 9.75 3.5H8.25C8.22474 3.5 8.19966 3.5 8.17475 3.5C8.03349 3.50001 7.96287 3.50001 7.91893 3.54394C7.875 3.58787 7.875 3.65853 7.875 3.79985L7.875 5.375C7.875 6.20343 7.20343 6.875 6.375 6.875C5.54658 6.875 4.875 6.20343 4.875 5.375L4.875 3.91207Z" fill="#7E869E" fill-opacity="0.25"/>
<path d="M6.375 2.375L6.375 5.375" stroke="#222222" stroke-linecap="round"/>
<path d="M11.625 2.375L11.625 5.375" stroke="#222222" stroke-linecap="round"/>
<circle cx="4.5" cy="9" r="0.5" fill="white"/>
<circle cx="6.5" cy="9" r="0.5" fill="white"/>
<circle cx="8.5" cy="9" r="0.5" fill="white"/>
<circle cx="10.5" cy="9" r="0.5" fill="white"/>
<circle cx="4.5" cy="11" r="0.5" fill="white"/>
<circle cx="6.5" cy="11" r="0.5" fill="white"/>
<circle cx="8.5" cy="11" r="0.5" fill="white"/>
<circle cx="10.5" cy="11" r="0.5" fill="white"/>
<circle cx="4.5" cy="13" r="0.5" fill="white"/>
<circle cx="6.5" cy="13" r="0.5" fill="white"/>
<circle cx="8.5" cy="13" r="0.5" fill="white"/>
<circle cx="10.5" cy="13" r="0.5" fill="white"/>
<circle cx="12.5" cy="9" r="0.5" fill="#222222"/>
<circle cx="12.5" cy="11" r="0.5" fill="#222222"/>
<circle cx="12.5" cy="13" r="0.5" fill="#222222"/>
</svg>
