<svg width="21" height="22" viewBox="0 0 21 22" fill="none" xmlns="http://www.w3.org/2000/svg">
<circle cx="10.5" cy="11" r="7.875" fill="white"/>
<path d="M10.5 5.175C10.5 5.03226 10.5 4.96088 10.5466 4.91655C10.5931 4.87221 10.662 4.87559 10.7999 4.88234C11.7709 4.92994 12.7181 5.20809 13.5625 5.69559C14.4936 6.23318 15.2668 7.00638 15.8044 7.9375C16.342 8.86862 16.625 9.92484 16.625 11C16.625 12.0752 16.342 13.1314 15.8044 14.0625C15.2668 14.9936 14.4936 15.7668 13.5625 16.3044C12.6314 16.842 11.5752 17.125 10.5 17.125C9.42484 17.125 8.36862 16.842 7.4375 16.3044C6.59312 15.8169 5.8786 15.1356 5.3519 14.3185C5.27713 14.2025 5.23974 14.1445 5.25486 14.0821C5.26997 14.0196 5.33178 13.9839 5.4554 13.9125L10.35 11.0866C10.4232 11.0443 10.4598 11.0232 10.4799 10.9884C10.5 10.9536 10.5 10.9113 10.5 10.8268V5.175Z" fill="#F86530"/>
</svg>
