<svg width="18" height="19" viewBox="0 0 18 19" fill="none" xmlns="http://www.w3.org/2000/svg">
<path fill-rule="evenodd" clip-rule="evenodd" d="M10.6667 4.04077H6.25C6.01786 4.04077 5.90179 4.04077 5.80379 4.04719C4.30152 4.14566 3.10489 5.34229 3.00642 6.84456C3 6.94256 3 7.05863 3 7.29077V7.83244C3 8.13159 3.24251 8.3741 3.54167 8.3741H3.72222C4.51997 8.3741 5.16667 9.0208 5.16667 9.81855C5.16667 10.6163 4.51997 11.263 3.72222 11.263H3.54167C3.24251 11.263 3 11.5055 3 11.8047V12.3463C3 12.5785 3 12.6945 3.00642 12.7925C3.10489 14.2948 4.30152 15.4914 5.80379 15.5899C5.90179 15.5963 6.01786 15.5963 6.25 15.5963H10.6667V14.8741C10.6667 14.3218 11.1144 13.8741 11.6667 13.8741V12.9852C11.1144 12.9852 10.6667 12.5375 10.6667 11.9852V11.263C10.6667 10.7107 11.1144 10.263 11.6667 10.263V9.3741C11.1144 9.3741 10.6667 8.92639 10.6667 8.3741V7.65188C10.6667 7.0996 11.1144 6.65188 11.6667 6.65188V5.76299C11.1144 5.76299 10.6667 5.31528 10.6667 4.76299V4.04077Z" fill="#FC6546"/>
<path fill-rule="evenodd" clip-rule="evenodd" d="M11.6665 5.76299V6.65188C12.2188 6.65188 12.6665 7.0996 12.6665 7.65188V8.3741C12.6665 8.92639 12.2188 9.3741 11.6665 9.3741V10.263C12.2188 10.263 12.6665 10.7107 12.6665 11.263V11.9852C12.6665 12.5375 12.2188 12.9852 11.6665 12.9852V13.8741C12.2188 13.8741 12.6665 14.3218 12.6665 14.8741V15.5963H12.7498C12.982 15.5963 13.098 15.5963 13.196 15.5899C14.6983 15.4914 15.8949 14.2948 15.9934 12.7925C15.9998 12.6945 15.9998 12.5785 15.9998 12.3463V11.8047C15.9998 11.5055 15.7573 11.263 15.4582 11.263H15.2776C14.4799 11.263 13.8332 10.6163 13.8332 9.81855C13.8332 9.0208 14.4799 8.3741 15.2776 8.3741H15.4582C15.7573 8.3741 15.9998 8.13159 15.9998 7.83244V7.29077C15.9998 7.05863 15.9998 6.94256 15.9934 6.84456C15.8949 5.34229 14.6983 4.14566 13.196 4.04719C13.098 4.04077 12.982 4.04077 12.7498 4.04077H12.6665V4.76299C12.6665 5.31528 12.2188 5.76299 11.6665 5.76299Z" fill="#00334E"/>
</svg>
