      <svg width="27" height="27" viewBox="0 0 27 27" fill="none" xmlns="http://www.w3.org/2000/svg">
                        <mask id="mask0_569_501" style="mask-type:luminance" maskUnits="userSpaceOnUse" x="0" y="0"
                            width="27" height="27">
                            <path d="M0 26.3197H26.3197V0H0V26.3197Z" fill="white" />
                        </mask>
                        <g mask="url(#mask0_569_501)">
                            <path
                                d="M23.2418 6.17784C22.9676 6.05721 22.6459 6.18515 22.5289 6.45932C22.5253 6.46297 22.5253 6.46663 22.5216 6.47394L21.8417 8.11526C21.7796 8.11161 21.7211 8.11161 21.6589 8.11526C20.7999 8.11526 20.0542 8.80981 19.5936 9.91012L18.6614 12.1619C18.5481 12.4361 18.464 12.7212 18.4092 13.01C17.9925 12.8345 17.5465 12.7431 17.0969 12.7431H13.0246C12.6006 12.776 12.1838 12.8492 11.7744 12.9625C11.6684 12.2021 10.9154 11.6575 10.8532 11.6099C11.3175 11.2517 11.7598 10.8679 12.1765 10.4584C13.2366 9.40201 13.3792 8.11161 12.5604 7.20504C12.246 6.80659 11.7452 6.60188 11.2407 6.66402C11.0689 6.17053 10.6887 5.77573 10.2026 5.57834C9.97957 5.48329 9.73465 5.42846 9.49338 5.4248C7.59251 5.4248 7.0515 8.4077 6.78099 9.27406C6.56532 9.24482 4.0686 8.95238 3.56779 10.8496H2.4419C2.14214 10.8496 1.90088 11.0909 1.90088 11.3906C1.90088 11.6904 2.14214 11.9316 2.4419 11.9316H3.65187C3.97356 12.7651 5.15429 13.8288 7.42071 13.0429C7.43898 13.5839 8.14084 14.9145 9.04741 15.2764C8.13719 15.7297 7.3476 17.6964 7.2818 17.8572C6.70057 19.2134 7.03688 20.5404 8.16643 21.0046C8.39307 21.0997 8.63434 21.1508 8.87926 21.1508C9.76755 21.1545 10.5791 20.4928 11.0177 19.4108C11.0835 19.2573 11.9389 17.6306 11.6501 16.5449C12.0851 16.7313 12.553 16.8227 13.0246 16.8154H17.0932C17.36 16.8154 17.6269 16.7861 17.8864 16.7313C17.817 17.3016 17.9011 17.8791 18.1387 18.4019C18.2045 18.5591 18.4896 19.2463 18.5554 19.4035C18.9941 20.4892 19.8092 21.1545 20.6975 21.1545C20.9425 21.1545 21.1837 21.1033 21.4067 21.0083C22.5363 20.5404 22.8726 19.228 22.295 17.8645C22.2255 17.7037 21.9441 17.0128 21.8783 16.8556C21.6443 16.2122 21.191 15.6712 20.5988 15.3239C21.2532 15.1156 21.8125 14.4905 22.1744 13.6095C22.2292 13.4852 23.059 11.482 23.1102 11.3577C23.5854 10.2099 23.5232 9.15343 22.8397 8.55758L23.5306 6.89432C23.6475 6.62016 23.5196 6.29847 23.2418 6.1815C23.2418 6.17784 23.2418 6.17784 23.2418 6.17784ZM11.2517 7.73875C11.683 7.74971 12.0267 8.10795 12.0193 8.5393C12.0193 8.56855 12.0157 8.59779 12.012 8.62338C11.928 9.03645 11.7123 9.41297 11.3979 9.69079L10.8203 10.2647C10.5169 10.612 10.0892 10.8313 9.62864 10.8752C9.42393 10.8788 9.22653 10.7984 9.08762 10.6485C8.64165 10.1843 8.95602 9.44587 9.50069 8.91948L10.0783 8.34556C10.378 8.0056 10.7984 7.78627 11.2517 7.73875ZM9.49704 6.51049C9.59939 6.51049 9.70175 6.53243 9.79679 6.57629C9.9686 6.63844 10.1112 6.76638 10.1916 6.93088C8.95602 7.32567 8.00924 9.05839 7.87033 9.52995C7.59617 8.94872 8.14084 6.51049 9.49704 6.51049ZM6.14859 12.2021H6.03527C5.32244 12.2021 4.61327 11.8951 4.61327 11.2517C4.61327 10.6083 5.31513 10.3159 6.02795 10.3013H6.1559C6.87238 10.3013 7.59617 10.5974 7.59617 11.2517C7.59617 11.9097 6.86872 12.2021 6.14859 12.2021ZM8.93409 13.8654C8.68186 13.6351 8.52833 13.3171 8.50274 12.9771C8.52833 12.5092 8.90119 12.1363 9.36909 12.1107C9.71637 12.1327 10.0381 12.2899 10.2684 12.5457L10.3268 12.6079C10.7289 13.0137 10.9848 13.6132 10.495 14.103C10.3415 14.2748 10.1258 14.3699 9.89914 14.3735C9.55553 14.3516 9.2375 14.1944 9.0072 13.9422C8.98161 13.9166 8.95968 13.891 8.93409 13.8654ZM10.4402 17.9778C10.3707 18.135 10.0783 18.8369 10.0125 19.0014C9.74196 19.6484 9.30695 20.0688 8.87926 20.0688C8.7769 20.0688 8.67455 20.0469 8.5795 20.003C8.38942 19.9299 8.23954 19.7837 8.16278 19.5936C8.03118 19.1586 8.07139 18.687 8.2761 18.2813C8.34555 18.1204 8.63434 17.4222 8.69648 17.265C8.96699 16.607 9.41296 16.1793 9.837 16.1793C9.93935 16.1793 10.0381 16.2013 10.1331 16.2415C10.3232 16.3146 10.4731 16.4608 10.5462 16.6472C10.6887 17.0896 10.6449 17.5648 10.4402 17.9778ZM13.0246 15.7297C12.3337 15.7297 11.5332 15.4811 11.5332 14.7793C11.5332 14.0811 12.3374 13.8288 13.0246 13.8288H17.0932C17.8353 13.8288 18.5846 14.1213 18.5846 14.7793C18.5846 15.4373 17.8353 15.7297 17.0932 15.7297H13.0246ZM21.297 18.2849C21.5017 18.6907 21.542 19.1586 21.4067 19.5936C21.3336 19.7837 21.1837 19.9335 20.99 20.0067C20.8949 20.0469 20.7962 20.0688 20.6939 20.0688C20.2662 20.0688 19.8202 19.6484 19.557 19.0014C19.4912 18.8369 19.2024 18.1423 19.1366 17.9852C18.9283 17.5757 18.8881 17.1005 19.0197 16.6582C19.0928 16.4681 19.2426 16.3219 19.4327 16.2488C19.5278 16.2086 19.6265 16.1866 19.7288 16.1866C20.1565 16.1866 20.6061 16.6107 20.8693 17.2723L21.297 18.2849ZM22.1122 10.9337L21.1801 13.1891C20.9096 13.8727 20.4782 14.3114 20.1127 14.3114C20.0176 14.3114 19.9262 14.2931 19.8421 14.2529C19.6447 14.1834 19.4985 14.0116 19.4656 13.8069C19.4071 13.3829 19.4766 12.9515 19.663 12.564L19.897 11.9974L20.6244 10.3013C20.8949 9.61768 21.3263 9.17536 21.6845 9.17536C21.7796 9.17536 21.871 9.1973 21.955 9.23385C22.1524 9.30331 22.2986 9.47511 22.3352 9.67982C22.3827 10.1148 22.306 10.5498 22.1122 10.9337Z"
                                fill="#003F7D" />
                        </g>
                    </svg>