 <svg width="27" height="27" viewBox="0 0 27 27" fill="none" xmlns="http://www.w3.org/2000/svg">
                        <mask id="mask0_569_494" style="mask-type:luminance" maskUnits="userSpaceOnUse" x="0" y="0"
                            width="27" height="27">
                            <path d="M0 26.3197H26.3197V0H0V26.3197Z" fill="white" />
                        </mask>
                        <g mask="url(#mask0_569_494)">
                            <path
                                d="M25.5451 14.644C24.7299 12.2021 23.1032 12.4763 23.1032 12.4763C25.0041 11.3906 24.4594 7.86669 24.4594 7.86669C23.3737 10.8496 22.288 10.5791 22.288 10.5791C23.9147 7.86669 22.0175 5.4248 22.0175 5.4248C22.1601 7.66929 21.2828 8.67821 20.4054 9.1315C19.7584 9.22654 19.1041 9.27041 18.4534 9.27041C12.7508 9.25579 12.4181 11.906 12.2683 12.4763C12.1147 11.9024 11.7675 9.25579 6.08313 9.25579C2.88455 9.25579 1.55029 8.28342 1.55029 8.28342C1.71845 8.90851 1.92681 9.51899 2.17173 10.1185V18.9173C1.99626 19.0745 1.89756 19.2975 1.90122 19.5314V21.1508C1.90122 21.6005 2.26677 21.966 2.7164 21.966C3.16603 21.966 3.53158 21.6005 3.53158 21.1508V19.5241C3.53158 19.2938 3.43288 19.0745 3.26107 18.921V12.2862C4.36504 14.092 6.05754 15.8101 8.48846 15.8101C11.1533 15.8101 12.2573 14.5782 12.2865 14.5709C12.3158 14.5636 13.4088 15.8101 16.07 15.8101C17.0899 15.8101 18.0878 15.4994 18.925 14.9109C21.1694 15.3495 20.4712 19.5205 20.4712 19.5205C23.5711 15.2618 21.8567 14.2529 21.8567 14.2529C23.4797 13.1855 25.5451 14.644 25.5451 14.644ZM10.4771 13.3207C10.4186 13.3646 9.81906 13.8617 8.48114 13.8617C6.89465 13.8617 5.69199 12.5457 4.86219 11.1493C5.24236 11.1786 5.64812 11.1969 6.07947 11.1969C8.79187 11.1969 9.45351 11.599 10.1225 12.1254C10.5063 12.3922 10.6525 12.8894 10.4771 13.3207ZM15.942 13.8654C14.6078 13.8654 14.0083 13.3536 13.9461 13.3244C13.767 12.893 13.9132 12.3995 14.2971 12.1327C14.966 11.5917 15.6204 11.2042 18.3364 11.2042C18.7714 11.2042 19.1772 11.1896 19.5574 11.1567C18.7166 12.564 17.5212 13.88 15.9384 13.88V13.8654H15.942Z"
                                fill="#003F7D" />
                        </g>
                    </svg>