<svg width="27" height="27" viewBox="0 0 27 27" fill="none" xmlns="http://www.w3.org/2000/svg">
                        <mask id="mask0_569_480" style="mask-type:luminance" maskUnits="userSpaceOnUse" x="0" y="0"
                            width="27" height="27">
                            <path d="M0 26.3197H26.3197V0H0V26.3197Z" fill="white" />
                        </mask>
                        <g mask="url(#mask0_569_480)">
                            <path
                                d="M21.7065 20.6098V20.0688H20.6208V10.8459H21.7065V10.3049H22.5216V8.6782H21.7065L13.2951 3.52393L4.88377 8.6782H4.0686V10.3049H4.88377V10.8459H5.96946V20.0688H4.88377V20.6098L2.98291 21.966V23.0517H13.2951H23.6073V21.966L21.7065 20.6098ZM9.22652 20.0688H7.59983V10.8459H9.22652V20.0688ZM12.4799 20.0688H10.8532V10.8459H12.4799V20.0688ZM13.0246 8.13719C12.4288 8.13719 11.9389 7.64735 11.9389 7.0515C11.9389 6.45565 12.4288 5.96581 13.0246 5.96581C13.6205 5.96581 14.1103 6.45565 14.1103 7.0515C14.1103 7.64735 13.6205 8.13719 13.0246 8.13719ZM15.737 20.0688H14.1103V10.8459H15.737V20.0688ZM18.9941 20.0688H17.3674V10.8459H18.9941V20.0688Z"
                                fill="#003F7D" />
                        </g>
                    </svg>