     <svg width="27" height="27" viewBox="0 0 27 27" fill="none" xmlns="http://www.w3.org/2000/svg">
                        <mask id="mask0_569_487" style="mask-type:luminance" maskUnits="userSpaceOnUse" x="0" y="0"
                            width="27" height="27">
                            <path d="M0 26.3197H26.3197V0H0V26.3197Z" fill="white" />
                        </mask>
                        <g mask="url(#mask0_569_487)">
                            <path
                                d="M20.0508 12.8783C19.1003 13.8543 18.2047 14.4794 16.2527 14.6951C16.7681 14.1797 17.364 13.6643 17.8794 13.0392C18.0951 12.7943 18.5045 12.2532 18.5045 12.224C18.9651 11.4636 19.2356 10.5973 19.2356 9.64685V6.12294H21.1364V10.2464C21.1657 10.3048 21.2205 11.661 20.0508 12.8783ZM6.56556 12.8783C5.3702 11.6574 5.42504 10.3012 5.42504 10.2464V6.09735H7.32591V9.62126C7.32591 10.5717 7.59642 11.4381 8.05701 12.1984C8.05701 12.224 8.46277 12.7942 8.6821 13.0136C9.22312 13.6387 9.79338 14.1541 10.3088 14.6695C8.4116 14.4539 7.4904 13.8288 6.56556 12.8783ZM22.7924 10.1696V4.4743H19.2648V2.57709H13.2954H7.32591V4.4743H3.79834V10.144C3.79834 10.4145 3.79833 12.2861 5.34462 13.9421C6.83607 15.514 8.65651 16.3291 11.8295 16.384C12.0744 16.7897 12.2097 17.2503 12.2097 17.7402V21.2641H10.8535C10.2576 21.2641 9.76779 21.7539 9.76779 22.3498H8.4116C7.81575 22.3498 7.32591 22.8396 7.32591 23.4355V23.9765H19.2648V23.4355C19.2648 22.8396 18.775 22.3498 18.1791 22.3498H16.8229C16.8229 21.7539 16.3331 21.2641 15.7372 21.2641H14.381V17.7657C14.381 17.2759 14.5163 16.8153 14.7612 16.4096C17.9342 16.3547 19.7547 15.514 21.2461 13.9677C22.7924 12.3373 22.7924 10.4401 22.7924 10.1696Z"
                                fill="#003F7D" />
                        </g>
                    </svg>