<svg width="27" height="27" viewBox="0 0 27 27" fill="none" xmlns="http://www.w3.org/2000/svg">
                        <mask id="mask0_569_467" style="mask-type:luminance" maskUnits="userSpaceOnUse" x="0" y="0"
                            width="27" height="27">
                            <path d="M0 26.3197H26.3197V0H0V26.3197Z" fill="white" />
                        </mask>
                        <g mask="url(#mask0_569_467)">
                            <path
                                d="M14.7866 15.3787C13.8105 14.9437 12.9149 14.293 12.2094 13.4267C11.8037 12.9368 11.4783 12.4251 11.2334 11.8548L2.44189 12.9953L3.173 18.9063C3.57876 22.1889 6.56531 24.4919 9.84797 24.0861C13.1306 23.6804 15.4373 20.6975 15.0315 17.4148L14.7866 15.3787ZM9.92839 14.834C10.0929 14.5891 10.4182 14.5087 10.6887 14.644L11.9645 15.4299C12.2094 15.5944 12.2899 15.9197 12.1546 16.1902C12.0449 16.3547 11.8841 16.4607 11.694 16.4607C11.5843 16.4607 11.5039 16.4352 11.4235 16.3803L10.1477 15.5944C9.87721 15.4299 9.79313 15.1046 9.92839 14.834ZM5.69896 16.2707L6.67498 15.1594C6.86507 14.9437 7.216 14.9145 7.43533 15.1045C7.651 15.2946 7.68025 15.6456 7.49016 15.8649L6.51414 16.9762C6.40447 17.0858 6.26922 17.1663 6.10838 17.1663C5.97312 17.1663 5.86346 17.1114 5.75745 17.031C5.53446 16.8409 5.50887 16.49 5.69896 16.2707ZM12.5348 20.4489C12.2899 20.639 11.9645 20.5842 11.7744 20.3392C11.1786 19.5533 10.2281 19.1475 9.25212 19.2828C8.2761 19.3925 7.46092 20.0431 7.08074 20.9388C7.00032 21.1544 6.78099 21.2641 6.59091 21.2641C6.51048 21.2641 6.45565 21.2385 6.37523 21.2093C6.10472 21.0996 5.96947 20.7743 6.07548 20.5037C6.61649 19.2572 7.78626 18.3616 9.11321 18.1971C10.4694 18.0326 11.8 18.6029 12.6408 19.6886C12.8345 19.9335 12.7797 20.2844 12.5348 20.4489Z"
                                fill="#FF5836" />
                        </g>
                        <mask id="mask1_569_467" style="mask-type:luminance" maskUnits="userSpaceOnUse" x="0" y="0"
                            width="27" height="27">
                            <path d="M0 26.3197H26.3197V0H0V26.3197Z" fill="white" />
                        </mask>
                        <g mask="url(#mask1_569_467)">
                            <path
                                d="M12.2642 2.44189L11.7232 8.38211C11.3979 11.6648 13.8142 14.5928 17.0968 14.8889C20.3795 15.1887 23.2819 12.7724 23.5817 9.49338L24.1227 3.55317L12.2642 2.44189ZM14.951 5.75014L16.4425 5.88539C16.7422 5.91098 16.9579 6.18514 16.9323 6.48124C16.9067 6.75175 16.6618 6.97108 16.3913 6.97108C16.3657 6.97108 16.3657 6.97108 16.3365 6.97108L14.845 6.83582C14.5453 6.81023 14.3296 6.53607 14.3552 6.23997C14.3808 5.94022 14.6513 5.72089 14.951 5.75014ZM20.7852 11.0104C20.0541 12.012 18.8844 12.6371 17.6634 12.6371C17.5538 12.6371 17.4185 12.6371 17.3125 12.6115C15.9563 12.4763 14.7609 11.6355 14.1907 10.4146C14.0554 10.1441 14.1907 9.81872 14.4612 9.68347C14.7317 9.54821 15.057 9.68347 15.1923 9.95398C15.5981 10.8496 16.4681 11.4454 17.4185 11.5258C18.3945 11.6063 19.345 11.1749 19.9152 10.3853C20.0797 10.1404 20.4306 10.0856 20.6756 10.2501C20.8912 10.4146 20.9461 10.7655 20.7852 11.0104ZM20.8364 7.37684C20.8108 7.37684 20.8108 7.37684 20.7816 7.37684L19.2901 7.24159C18.9904 7.216 18.7747 6.94183 18.8003 6.64574C18.8259 6.34598 19.1 6.13031 19.3961 6.1559L20.8876 6.29115C21.1873 6.31674 21.403 6.5909 21.3774 6.887C21.3518 7.16116 21.1106 7.37684 20.8364 7.37684Z"
                                fill="#FF5836" />
                            <path
                                d="M5.35 8.45C5.91656 8.63885 6.36115 9.08344 6.55 9.65C6.69415 10.0825 7.30585 10.0825 7.45 9.65C7.63885 9.08344 8.08344 8.63885 8.65 8.45C9.08246 8.30585 9.08246 7.69415 8.65 7.55C8.08344 7.36115 7.63885 6.91656 7.45 6.35C7.30585 5.91754 6.69415 5.91754 6.55 6.35C6.36115 6.91656 5.91656 7.36115 5.35 7.55C4.91754 7.69415 4.91754 8.30585 5.35 8.45Z"
                                stroke="#FF5836" stroke-width="0.5" />
                            <path
                                d="M3.675 4.725C3.95828 4.81943 4.18057 5.04172 4.275 5.325C4.34708 5.54123 4.65292 5.54123 4.725 5.325C4.81943 5.04172 5.04172 4.81943 5.325 4.725C5.54123 4.65292 5.54123 4.34708 5.325 4.275C5.04172 4.18057 4.81943 3.95828 4.725 3.675C4.65292 3.45877 4.34708 3.45877 4.275 3.675C4.18057 3.95828 3.95828 4.18057 3.675 4.275C3.45877 4.34708 3.45877 4.65292 3.675 4.725Z"
                                stroke="#FF5836" stroke-width="0.5" />
                        </g>
                    </svg>